<svg width="86" height="86" viewBox="0 0 86 86" fill="none" xmlns="http://www.w3.org/2000/svg">
<path d="M42.9997 51.7457L37.2568 58.7059V86H48.7426V58.7059L42.9997 51.7457Z" fill="#FAE58B"/>
<path d="M74.8375 72.1162L66.0078 79.6229L48.7432 58.706V49.6323L57.537 51.1992L74.8375 72.1162Z" fill="#FAE58B"/>
<path d="M59.5469 39.7203L51.7939 44.239L57.5368 51.1991L83.9901 55.9364L86.0001 44.4576L59.5469 39.7203Z" fill="#FAE58B"/>
<path d="M77.0624 15.9974L53.7677 29.6263L50.7168 38.1534L59.5106 39.7203L82.7694 26.0915L77.0624 15.9974Z" fill="#FAE58B"/>
<path d="M62.9925 3.97203L53.8038 29.6263L46.0509 34.1814L43 25.6542L52.1886 0L62.9925 3.97203Z" fill="#FAE58B"/>
<path d="M42.9998 25.6542L39.9489 34.1814L32.196 29.6263L23.0073 3.97203L33.8112 0L42.9998 25.6542Z" fill="#FAE58B"/>
<path d="M32.196 29.6263L8.93724 15.9974L3.19434 26.0915L26.4531 39.7203L35.2469 38.1534L32.196 29.6263Z" fill="#FAE58B"/>
<path d="M26.4533 39.7203L0 44.4576L2.01002 55.9364L28.4992 51.1991L34.2421 44.239L26.4533 39.7203Z" fill="#FAE58B"/>
<path d="M28.4633 51.1992L11.1987 72.1162L19.9926 79.6229L37.2572 58.706V49.6323L28.4633 51.1992Z" fill="#FAE58B"/>
</svg>
